<?xml version="1.0" encoding="utf-8"?>
<!-- Generator: Adobe Illustrator 19.0.0, SVG Export Plug-In . SVG Version: 6.00 Build 0)  -->
<svg version="1.1" id="layer" xmlns="http://www.w3.org/2000/svg" xmlns:xlink="http://www.w3.org/1999/xlink" x="0px" y="0px"
	 viewBox="-153 -46 652 652" style="enable-background:new -153 -46 652 652;" xml:space="preserve">
<style type="text/css">
	.st0{fill:#272424;}
	.st1{fill:#FCCA00;}
</style>
<path class="st0" d="M67.7,317.9h-9.2v-5.7h9.3c2.8,0,3.4,0.6,3.4,3C71.3,317.3,70.5,317.9,67.7,317.9 M72.4,309.2
	c-0.8-0.3-1.8-0.3-4.1-0.3H54.4v17.8h4.1v-5.4h10.3c2.8,0,4.1-0.3,5.1-1.1c1.1-0.9,1.5-2.4,1.5-5.2
	C75.4,311.3,74.6,309.8,72.4,309.2 M97.7,318.4c0,2.5,0,2.5-0.1,2.8c-0.2,1.1-0.7,1.8-1.8,2c-0.6,0.2-2.8,0.3-5.2,0.3
	c-5.3,0-6.4-0.3-6.7-2.2c-0.1-0.7-0.1-0.7-0.1-3.1v-9.3h-4.1v10.6c0,3.3,0.3,4.5,1.2,5.6c1.3,1.5,3.2,1.8,9.3,1.8
	c6.3,0,7.8-0.2,9.3-1c1.7-1,2.2-2.3,2.2-5.7v-11.2h-4.1V318.4z M121.7,322.2l-8.4-13.4h-6.4v17.8h4l-0.1-14.7l9.2,14.7h3.2l9.2-14.7
	l-0.2,14.7h4v-17.8h-6.3L121.7,322.2z M154.9,317.9h-9.2v-5.7h9.3c2.8,0,3.4,0.6,3.4,3C158.5,317.3,157.7,317.9,154.9,317.9
	 M159.6,309.2c-0.8-0.3-1.8-0.3-4.1-0.3h-13.9v17.8h4.1v-5.4H156c2.8,0,4.1-0.3,5.1-1.1c1.1-0.9,1.5-2.4,1.5-5.2
	C162.6,311.3,161.8,309.8,159.6,309.2 M167,326.6h4.1v-17.8H167V326.6z M196.2,323.6l-13.4-14.8h-6.4v17.8h4l-0.1-14.7l13.3,14.7
	h6.4v-17.8h-3.9L196.2,323.6z M215.7,319.8h7.9c0,1.2-0.1,2.1-0.5,2.5c-0.8,1.1-1.4,1.3-6.6,1.3c-4.8,0-5.9-0.1-6.6-0.8
	c-0.7-0.6-1-1.8-1-5.3c0-2.8,0.2-4,0.7-4.6c0.7-0.8,1.7-0.9,8.1-0.9c3.5,0,4.4,0.1,5.1,0.7c0.5,0.4,0.6,0.8,0.7,1.9h4
	c0-2-0.4-3.4-1.1-4.2c-1.1-1.3-3-1.7-8.2-1.7c-5.2,0-7.1,0.1-8.8,0.3c-1.4,0.2-2.5,0.7-3.2,1.5c-1.1,1.3-1.4,2.7-1.4,7.5
	c0,2.5,0.1,3.7,0.3,4.7c0.4,1.9,1.3,2.9,3,3.6c1.1,0.4,3.4,0.6,8.1,0.6c5.4,0,6.9-0.1,7.9-0.3c1.4-0.3,2.3-0.9,2.8-1.9
	c0.6-1.2,0.8-2.4,0.8-5.6v-1.9h-11.9V319.8z M254.4,322.2l-8.4-13.4h-6.4v17.8h4l-0.1-14.7l9.2,14.7h3.2l9.2-14.7l-0.2,14.7h4v-17.8
	h-6.3L254.4,322.2z M280.8,320.2l4.8-8.5l4.8,8.5H280.8z M282.9,308.8l-10.2,17.8h4.6l2-3.5H292l2,3.5h4.5l-10-17.8H282.9z
	 M318.8,322.8c-0.7,0.4-1.7,0.6-3.2,0.6h-10.2v-11.2h10.2c3.8,0,4.6,1,4.6,5.9C320.2,320.9,319.8,322.2,318.8,322.8 M316.1,308.8
	h-14.8v17.8h15.2c3,0,4.9-0.5,6-1.5c1.4-1.3,1.9-3.2,1.9-7.2c0-3.9-0.4-5.9-1.5-7.2C321.7,309.5,319.5,308.8,316.1,308.8 M333.2,319
	h14.2v-2.8h-14.2V312h14.9v-3.1h-18.9v17.8h19.1v-3.1h-15V319z M364,319h14.2v-2.8H364V312h14.9v-3.1H360v17.8h19.1v-3.1h-15V319z
	 M390.5,320.2l4.8-8.5l4.8,8.5H390.5z M392.5,308.8l-10.2,17.8h4.6l2-3.5h12.7l2,3.5h4.5l-10-17.8H392.5z M423,316.1h-3
	c-2.8,0-3.8-0.1-4.4-0.5c-0.5-0.3-0.7-0.8-0.7-1.6c0-0.8,0.3-1.4,1-1.7c0.8-0.4,3.2-0.6,6.5-0.6c2,0,3.7,0.2,4.4,0.6
	c0.6,0.3,0.8,0.8,0.9,1.8h4v-0.3c0-2.7-0.8-4-3-4.6c-1.2-0.4-3.1-0.5-6.7-0.5c-5.9,0-8.6,0.4-9.8,1.5c-0.9,0.7-1.3,2.4-1.3,4.4
	c0,1.6,0.4,2.7,1.3,3.4c1,0.9,2.5,1.2,6.2,1.2h2.6c4.9,0,4.9,0,5.6,0.2c1.2,0.3,1.7,0.8,1.7,1.8c0,0.6-0.2,1.1-0.5,1.5
	c-0.3,0.4-0.8,0.6-1.8,0.7c-1.9,0.2-3.3,0.3-5.5,0.3c-2.6,0-4-0.2-4.6-0.5c-0.5-0.3-0.7-0.9-0.7-2.1V321h-4c0,0.3,0,0.7,0,0.9
	c0,1.7,0.3,2.8,1.1,3.5c1.1,1.1,3.1,1.4,9.5,1.4c6,0,8.3-0.4,9.5-1.5c0.9-0.9,1.3-2.1,1.3-4c0-1.8-0.3-2.9-1.1-3.7
	C430,316.4,428.4,316.1,423,316.1 M446.6,316.7l-7-7.9h-5.3l10.2,11.1v6.7h4.1v-6.7l10.1-11.1h-5.2L446.6,316.7z M80.4,294.7
	l10.3-58.8H75.4l-4.7,26.7c-1,5.3-2,16.9-2,16.9h-1.3c0,0-1.1-11.6-2-16.9l-4.7-26.7H45.1l10.3,58.8H80.4z M125.6,282.2h-15.1v-12.5
	H122v-10.7h-11.6v-10.7h14.2v-12.5H95.3v58.8h30.3V282.2z M154.9,256c0,4.6-2,5.8-6.2,5.8H146v-13.4h1.8c5.6,0,7.1,1.8,7.1,6.7V256z
	 M161.8,270.5v-0.4c5.3-2.6,8.2-7.5,8.2-14.7v-1.6c0-11-5.7-17.9-19.4-17.9h-19.8v58.8H146v-22.3h0.6c1.5,0,2.4,0.7,3,2.7l6.7,19.6
	h15.9l-6.4-18.7C165,273.3,163.8,271.5,161.8,270.5 M188.8,283.3c-5.4,0-11.2-1.3-11.2-1.3l-1.3,0.7c0,0-0.1,7.1,0.4,11.8
	c0.4,0.1,7.2,1.3,13.5,1.3c15.4,0,20.9-7,20.9-19.3c0-8.6-3.6-13-11.2-16.2l-6.9-2.8c-1.4-0.6-3.2-1.9-3.2-4.5
	c0-3.5,1.7-5.5,7.1-5.5c3.7,0,8.1,0.9,8.1,0.9l1.3-0.7c0,0,0.8-5.8,1.1-11.6c0-0.1-5.8-1.1-11.4-1.1c-15.3,0-21.4,6.9-21.4,18.9
	c0,8.8,4.7,13.5,10.3,15.8l7.1,2.8c2.7,1.1,3.9,2.5,3.9,5C195.9,281,194.3,283.3,188.8,283.3 M232.5,273.3l1.3-7.6
	c1-5.8,1.7-15.1,1.7-15.1h1.3c0,0,0.5,9.4,1.6,15.1l1.3,7.6H232.5z M243.6,294.7H259l-12.6-58.8h-20.6l-12.6,58.8h15.4l1.5-8.9H242
	L243.6,294.7z M303,261.6l-0.4,13.5v19.6h15.1v-58.8h-19.6l-4.1,14.2c-1.5,5.3-2.8,12-2.8,12h-0.6c0,0-1.2-6.7-2.8-12l-4-14.2h-19.6
	v58.8h15.1v-19.6l-0.4-13.5l0.8-0.1c0,0,1.3,7.2,2.4,11l5.9,20.5h5.6l5.9-20.5c1-3.6,2.5-11,2.5-11L303,261.6z M341.4,273.3l1.3-7.6
	c1-5.8,1.7-15.1,1.7-15.1h1.3c0,0,0.5,9.4,1.6,15.1l1.3,7.6H341.4z M355.4,235.9h-20.6l-12.6,58.8h15.4l1.5-8.9H351l1.6,8.9H368
	L355.4,235.9z M374.2,294.7h15.1v-46.3h8.9v-12.5h-33v12.5h8.9V294.7z M418.7,235.9h-15.1v58.8h15.1V235.9z M446.8,295.8
	c5.9,0,11.4-1.9,11.4-1.9c-0.4-4.9-1.4-11-1.4-11l-1.1-0.5c0,0-3.5,1-5.9,1c-6.4,0-9.5-4.2-9.5-16.4V265c0-12.7,3.2-17.7,9.6-17.7
	c2.4,0,5,0.5,5,0.5l1.1-0.5c0,0,0.9-6.4,1.2-11.3c0,0-3.6-1.2-8.5-1.2c-14.9,0-24,8.4-24,30v3.1
	C424.7,289.6,433.8,295.8,446.8,295.8 M-42.4,297.6l-10.2-24.1l15.2-35.8l23.1-4.4L-42.4,297.6z M-99.1,233.3l23.2,4.4l19.1,45.2
	l10.2,24.1l-10.2,23.4L-99.1,233.3z M-4.1,209.9h-105.1c-9.8,0-17.7,7.9-17.7,17.7v105.1c0,9.8,7.9,17.7,17.7,17.7H-4.1
	c9.8,0,17.7-7.9,17.7-17.7V227.6C13.6,217.8,5.7,209.9-4.1,209.9 M467.1,246c-2.9,0-4.7-2.3-4.7-5c0-3,2-5,4.7-5
	c2.6,0,4.6,2.1,4.6,5C471.7,243.9,469.7,246,467.1,246 M467.1,234.9c-3.2,0-6,2.4-6,6.1c0,3.5,2.5,6.1,6,6.1c3.2,0,5.9-2.4,5.9-6.1
	C473,237.3,470.3,234.9,467.1,234.9 M465.9,240.6v-2h1.3c0.7,0,1.5,0.1,1.5,0.9c0,1-0.7,1.1-1.6,1.1H465.9z M469.8,239.6
	c0-1.4-0.8-1.9-2.5-1.9h-2.6v6.7h1.1v-2.9h1l1.7,2.9h1.3l-1.9-3C469,241.4,469.8,240.9,469.8,239.6"/>
<path class="st1" d="M-46.5,307l-10.2,23.4l-42.4-97.1l23.2,4.4l19.1,45.2L-46.5,307z M-52.6,273.5l10.2,24.1l28.1-64.3l-23.1,4.4
	L-52.6,273.5z"/>
</svg>
